<svg width="100" height="100" viewBox="0 0 100 100" fill="none" xmlns="http://www.w3.org/2000/svg">
    <g clip-path="url(#532ecm4aia)" fill="#A8A8A8">
        <path d="M50 100c-13.355 0-25.912-5.201-35.355-14.645A49.838 49.838 0 0 1 3.93 69.463C1.322 63.297 0 56.749 0 50c0-13.355 5.201-25.912 14.645-35.355C24.088 5.2 36.645 0 50 0c6.749 0 13.297 1.322 19.463 3.93a49.838 49.838 0 0 1 15.892 10.715A49.837 49.837 0 0 1 96.07 30.537C98.678 36.703 100 43.251 100 50c0 6.749-1.322 13.297-3.93 19.463a49.837 49.837 0 0 1-10.715 15.892A49.837 49.837 0 0 1 69.463 96.07C63.297 98.678 56.749 100 50 100zm0-94.003C25.737 5.997 5.997 25.736 5.997 50S25.736 94.003 50 94.003 94.003 74.264 94.003 50 74.263 5.997 50 5.997z"/>
        <path d="M35.221 45.965a4.798 4.798 0 1 0 0-9.596 4.798 4.798 0 0 0 0 9.596zM63.557 45.965a4.798 4.798 0 1 0 0-9.596 4.798 4.798 0 0 0 0 9.596zM63.023 59.373c.749 0 1.34.642 1.27 1.387-.7 7.589-7.083 13.53-14.853 13.53S35.286 68.35 34.587 60.76a1.274 1.274 0 0 1 1.27-1.387h27.166z"/>
    </g>
    <defs>
        <clipPath id="532ecm4aia">
            <path fill="#fff" d="M0 0h100v100H0z"/>
        </clipPath>
    </defs>
</svg>
