<svg width="100" height="100" viewBox="0 0 100 100" fill="none" xmlns="http://www.w3.org/2000/svg">
    <g clip-path="url(#a6pwlx7hca)" fill="#A8A8A8">
        <path d="M50 100c-13.355 0-25.911-5.201-35.355-14.645C5.201 75.911 0 63.356 0 50c0-6.748 1.322-13.297 3.93-19.463a49.813 49.813 0 0 1 10.715-15.892C24.089 5.201 36.645 0 50 0c13.355 0 25.911 5.201 35.355 14.645a49.826 49.826 0 0 1 10.714 15.892A49.706 49.706 0 0 1 100 50c0 13.355-5.201 25.911-14.645 35.355C75.911 94.799 63.355 100 50 100zm0-94.004C25.736 5.996 5.996 25.736 5.996 50S25.736 94.004 50 94.004 94.004 74.264 94.004 50 74.264 5.996 50 5.996z"/>
        <path d="M35.883 45.66a4.798 4.798 0 1 0 0-9.595 4.798 4.798 0 0 0 0 9.595zM64.219 45.66a4.798 4.798 0 1 0 0-9.595 4.798 4.798 0 0 0 0 9.595zM65.761 68.199c-.331 0-.667-.055-.997-.172-5.299-1.87-10.49-2.832-15.43-2.86-4.705-.028-9.573.82-14.073 2.452a3 3 0 0 1-2.045-5.637c5.078-1.842 10.57-2.813 15.898-2.813h.255c5.61.033 11.46 1.11 17.39 3.202a3 3 0 0 1-.999 5.827h.001z"/>
    </g>
    <defs>
        <clipPath id="a6pwlx7hca">
            <path fill="#fff" d="M0 0h100v100H0z"/>
        </clipPath>
    </defs>
</svg>
