<svg width="100" height="100" viewBox="0 0 100 100" fill="none" xmlns="http://www.w3.org/2000/svg">
    <g clip-path="url(#aux1oedp6a)" fill="#D22D28">
        <path d="M50 100c-6.748 0-13.297-1.322-19.463-3.93a49.814 49.814 0 0 1-15.892-10.715C5.201 75.911 0 63.355 0 50c0-13.355 5.201-25.911 14.645-35.355A49.825 49.825 0 0 1 30.537 3.931C36.703 1.322 43.252 0 50 0c6.748 0 13.297 1.322 19.463 3.93a49.813 49.813 0 0 1 15.892 10.715C94.799 24.089 100 36.645 100 50c0 13.355-5.201 25.911-14.645 35.355a49.826 49.826 0 0 1-15.892 10.714A49.706 49.706 0 0 1 50 100zm0-94.004C25.736 5.996 5.996 25.736 5.996 50S25.736 94.004 50 94.004 94.004 74.264 94.004 50 74.264 5.996 50 5.996z"/>
        <path d="M35.223 45.964a4.798 4.798 0 1 0 0-9.595 4.798 4.798 0 0 0 0 9.595zM63.558 45.964a4.798 4.798 0 1 0 0-9.596 4.798 4.798 0 0 0 0 9.596zM68.656 66.98H31.344a2.999 2.999 0 0 1 0-5.997h37.312a2.999 2.999 0 0 1 0 5.996z"/>
    </g>
    <defs>
        <clipPath id="aux1oedp6a">
            <path fill="#fff" d="M0 0h100v100H0z"/>
        </clipPath>
    </defs>
</svg>
