<svg width="100" height="100" viewBox="0 0 100 100" fill="none" xmlns="http://www.w3.org/2000/svg">
    <path d="M50 100c-13.355 0-25.911-5.201-35.355-14.645C5.201 75.911 0 63.355 0 50c0-6.748 1.322-13.297 3.93-19.463a49.831 49.831 0 0 1 10.715-15.893C24.089 5.2 36.645 0 50 0c6.748 0 13.297 1.322 19.463 3.93a49.831 49.831 0 0 1 15.893 10.715 49.826 49.826 0 0 1 10.715 15.892C98.678 36.703 100 43.252 100 50c0 13.355-5.201 25.911-14.645 35.355a49.832 49.832 0 0 1-15.893 10.714A49.702 49.702 0 0 1 50 100zm0-94.004C25.736 5.996 5.996 25.736 5.996 50S25.736 94.004 50 94.004 94.004 74.264 94.004 50 74.264 5.996 50 5.996z" fill="#A8A8A8"/>
    <path d="M35.833 42.579a4.798 4.798 0 1 0 0-9.596 4.798 4.798 0 0 0 0 9.596zM64.168 42.579a4.798 4.798 0 1 0 0-9.596 4.798 4.798 0 0 0 0 9.596zM67.918 70.015a2.997 2.997 0 0 1-2.629-1.553c-2.607-4.735-8.298-7.793-14.496-7.793-6.199 0-11.372 2.757-14.145 7.195a2.999 2.999 0 0 1-5.086-3.178c3.861-6.177 11.229-10.014 19.23-10.014 4.162 0 8.213 1.03 11.714 2.98 3.468 1.931 6.248 4.67 8.037 7.918a2.999 2.999 0 0 1-2.625 4.446z" fill="#A8A8A8"/>
</svg>
