<svg width="100" height="100" viewBox="0 0 100 100" fill="none" xmlns="http://www.w3.org/2000/svg">
    <g clip-path="url(#pj9pynqmta)" fill="#A8A8A8">
        <path d="M50 100c-6.748 0-13.297-1.322-19.463-3.93a49.832 49.832 0 0 1-15.893-10.715A49.827 49.827 0 0 1 3.929 69.463C1.322 63.297 0 56.748 0 50c0-6.748 1.322-13.297 3.93-19.463a49.813 49.813 0 0 1 10.715-15.892A49.825 49.825 0 0 1 30.537 3.931C36.703 1.322 43.252 0 50 0c6.748 0 13.297 1.322 19.463 3.93a49.813 49.813 0 0 1 15.892 10.715 49.826 49.826 0 0 1 10.714 15.892C98.678 36.703 100 43.252 100 50c0 6.748-1.322 13.297-3.93 19.463a49.814 49.814 0 0 1-10.715 15.892 49.819 49.819 0 0 1-15.893 10.714C63.295 98.678 56.747 100 50 100H50zm0-94.004C25.736 5.996 5.996 25.736 5.996 50S25.736 94.004 50 94.004 94.004 74.264 94.004 50 74.264 5.996 50 5.996z"/>
        <path d="M35.223 45.964a4.798 4.798 0 1 0 0-9.595 4.798 4.798 0 0 0 0 9.595zM63.558 45.964a4.798 4.798 0 1 0 0-9.596 4.798 4.798 0 0 0 0 9.596zM50.124 67.247c-5.329 0-10.82-.971-15.898-2.813a2.999 2.999 0 0 1 2.045-5.638c4.5 1.632 9.363 2.48 14.074 2.453 4.94-.028 10.13-.992 15.429-2.86a2.999 2.999 0 0 1 1.996 5.654c-5.93 2.092-11.78 3.17-17.39 3.203h-.256z"/>
    </g>
    <defs>
        <clipPath id="pj9pynqmta">
            <path fill="#fff" d="M0 0h100v100H0z"/>
        </clipPath>
    </defs>
</svg>
